<svg width="108" height="108" viewBox="0 0 108 108" fill="none" xmlns="http://www.w3.org/2000/svg">
<path d="M39.0391 29.4059C38.992 29.1718 38.8211 28.9826 38.5954 28.9102L37.5418 28.5722C37.3692 27.9322 37.1176 27.3251 36.7981 26.7622L37.3065 25.7709C37.4167 25.5562 37.4014 25.2985 37.2686 25.0973C37.0735 24.8016 36.8156 24.5083 36.4913 24.1811C36.1646 23.8514 35.872 23.5899 35.5768 23.3925C35.3793 23.2605 35.1259 23.2487 34.9156 23.3585L33.9331 23.8715C33.3751 23.5492 32.7734 23.2953 32.1391 23.1212L31.8041 22.0582C31.7315 21.8278 31.5401 21.6565 31.3052 21.6089C30.96 21.5391 30.5721 21.5156 30.1134 21.5156C29.6514 21.5156 29.2612 21.5394 28.9141 21.6105C28.682 21.658 28.4945 21.8305 28.4228 22.0582L28.0878 23.1212C27.4535 23.2953 26.8517 23.5492 26.2938 23.8715L25.3113 23.3586C25.0985 23.2474 24.8431 23.2628 24.6437 23.3968C24.3506 23.5937 24.0599 23.8538 23.7355 24.1811C23.4088 24.5107 23.1496 24.8059 22.9539 25.1038C22.8231 25.303 22.8115 25.5587 22.9203 25.7708L23.4288 26.7622C23.1093 27.3251 22.8576 27.9322 22.685 28.5722L21.6315 28.9102C21.4032 28.9834 21.2333 29.1765 21.1862 29.4135C21.117 29.7619 21.0938 30.1532 21.0938 30.616C21.0938 31.0822 21.1173 31.4758 21.1878 31.8261C21.2348 32.0602 21.4058 32.2494 21.6315 32.3218L22.685 32.6598C22.8576 33.2998 23.1093 33.9069 23.4288 34.4698L22.9203 35.4611C22.8102 35.6758 22.8254 35.9335 22.9582 36.1347C23.1534 36.4304 23.4112 36.7237 23.7355 37.0509C24.0623 37.3806 24.3548 37.6421 24.6501 37.8395C24.8475 37.9715 25.1009 37.9833 25.3112 37.8735L26.2938 37.3605C26.8517 37.6828 27.4534 37.9367 28.0877 38.1108L28.4227 39.1738C28.4953 39.4042 28.6867 39.5755 28.9216 39.6231C29.2669 39.6929 29.6547 39.7164 30.1134 39.7164C30.5755 39.7164 30.9656 39.6926 31.3128 39.6215C31.5449 39.574 31.7323 39.4015 31.8041 39.1738L32.1391 38.1108C32.7734 37.9367 33.3751 37.6828 33.933 37.3605L34.9156 37.8734C35.1283 37.9846 35.3838 37.9692 35.5832 37.8352C35.8763 37.6383 36.167 37.3782 36.4913 37.0509C36.818 36.7213 37.0772 36.4261 37.2729 36.1282C37.4037 35.929 37.4154 35.6733 37.3066 35.4612L36.7981 34.4698C37.1176 33.9069 37.3692 33.2998 37.5418 32.6598L38.5953 32.3218C38.8237 32.2486 38.9935 32.0555 39.0406 31.8185C39.1099 31.4701 39.1331 31.0788 39.1331 30.616C39.1331 30.1498 39.1095 29.7562 39.0391 29.4059ZM30.1134 36.3452C26.9773 36.3452 24.435 33.7802 24.435 30.616C24.435 27.4519 26.9773 24.8868 30.1134 24.8868C33.2495 24.8868 35.7918 27.4519 35.7918 30.616C35.7918 33.7802 33.2495 36.3452 30.1134 36.3452Z" fill="url(#paint0_linear_3_2)"/>
<path d="M87.0253 48.2894C86.9911 48.1191 86.8668 47.9816 86.7026 47.9289L85.9364 47.6831C85.8109 47.2176 85.6279 46.7761 85.3955 46.3667L85.7653 45.6458C85.8454 45.4896 85.8343 45.3022 85.7377 45.1559C85.5958 44.9408 85.4083 44.7275 85.1724 44.4895C84.9348 44.2498 84.722 44.0596 84.5073 43.916C84.3637 43.82 84.1794 43.8114 84.0264 43.8913L83.3119 44.2644C82.9061 44.03 82.4685 43.8453 82.0072 43.7187L81.7635 42.9456C81.7107 42.7781 81.5716 42.6535 81.4007 42.6189C81.1496 42.5681 80.8675 42.551 80.534 42.551C80.1979 42.551 79.9142 42.5683 79.6617 42.62C79.4929 42.6546 79.3566 42.78 79.3044 42.9456L79.0607 43.7187C78.5994 43.8453 78.1618 44.03 77.756 44.2644L77.0415 43.8913C76.8867 43.8105 76.701 43.8217 76.5559 43.9191C76.3428 44.0623 76.1314 44.2515 75.8955 44.4895C75.6579 44.7293 75.4694 44.9439 75.3271 45.1606C75.2319 45.3054 75.2234 45.4914 75.3026 45.6457L75.6724 46.3667C75.44 46.7761 75.257 47.2176 75.1315 47.6831L74.3653 47.9289C74.1992 47.9821 74.0757 48.1226 74.0414 48.2949C73.9911 48.5483 73.9742 48.8329 73.9742 49.1695C73.9742 49.5085 73.9913 49.7948 74.0426 50.0495C74.0768 50.2198 74.2011 50.3574 74.3652 50.41L75.1315 50.6558C75.257 51.1213 75.44 51.5628 75.6724 51.9722L75.3026 52.6932C75.2225 52.8493 75.2336 53.0367 75.3302 53.183C75.4721 53.3981 75.6596 53.6114 75.8955 53.8494C76.1331 54.0891 76.3459 54.2794 76.5606 54.4229C76.7042 54.5189 76.8885 54.5275 77.0414 54.4476L77.756 54.0745C78.1618 54.309 78.5994 54.4936 79.0607 54.6203L79.3044 55.3933C79.3571 55.5609 79.4963 55.6855 79.6672 55.72C79.9183 55.7709 80.2003 55.7879 80.5339 55.7879C80.87 55.7879 81.1537 55.7706 81.4062 55.7189C81.575 55.6844 81.7113 55.5589 81.7635 55.3933L82.0072 54.6203C82.4685 54.4936 82.9061 54.309 83.3119 54.0745L84.0264 54.4476C84.1812 54.5284 84.3669 54.5173 84.5119 54.4198C84.7251 54.2766 84.9365 54.0874 85.1724 53.8494C85.41 53.6097 85.5985 53.395 85.7408 53.1783C85.836 53.0335 85.8445 52.8475 85.7653 52.6932L85.3955 51.9722C85.6279 51.5628 85.8109 51.1213 85.9364 50.6559L86.7026 50.4101C86.8687 50.3568 86.9922 50.2164 87.0265 50.044C87.0768 49.7907 87.0937 49.5061 87.0937 49.1695C87.0937 48.8304 87.0766 48.5441 87.0253 48.2894ZM80.5339 53.3362C78.2532 53.3362 76.4042 51.4707 76.4042 49.1695C76.4042 46.8683 78.2532 45.0028 80.5339 45.0028C82.8147 45.0028 84.6637 46.8683 84.6637 49.1695C84.6637 51.4707 82.8147 53.3362 80.5339 53.3362Z" fill="url(#paint1_linear_3_2)"/>
<path d="M33.722 81.8042C33.6963 81.6765 33.6031 81.5733 33.48 81.5338L32.9053 81.3495C32.8112 81.0004 32.6739 80.6692 32.4997 80.3622L32.777 79.8215C32.8371 79.7044 32.8288 79.5638 32.7563 79.4541C32.6499 79.2928 32.5092 79.1328 32.3323 78.9543C32.1541 78.7745 31.9945 78.6318 31.8335 78.5241C31.7258 78.4522 31.5876 78.4457 31.4729 78.5056L30.9369 78.7855C30.6326 78.6096 30.3044 78.4711 29.9584 78.3762L29.7757 77.7964C29.7361 77.6707 29.6317 77.5772 29.5036 77.5513C29.3152 77.5132 29.1037 77.5004 28.8535 77.5004C28.6015 77.5004 28.3886 77.5134 28.1993 77.5522C28.0727 77.5781 27.9705 77.6721 27.9313 77.7963L27.7486 78.3762C27.4026 78.4711 27.0744 78.6096 26.77 78.7855L26.2341 78.5056C26.1181 78.445 25.9788 78.4534 25.87 78.5265C25.7101 78.6339 25.5516 78.7758 25.3746 78.9543C25.1964 79.1341 25.055 79.2951 24.9483 79.4576C24.877 79.5662 24.8706 79.7057 24.93 79.8214L25.2073 80.3622C25.033 80.6692 24.8958 81.0004 24.8016 81.3495L24.227 81.5338C24.1024 81.5738 24.0098 81.6791 23.9841 81.8084C23.9463 81.9984 23.9337 82.2118 23.9337 82.4642C23.9337 82.7185 23.9465 82.9333 23.9849 83.1243C24.0106 83.252 24.1039 83.3552 24.227 83.3947L24.8016 83.579C24.8958 83.9281 25.033 84.2593 25.2073 84.5663L24.93 85.107C24.8699 85.2241 24.8782 85.3647 24.9506 85.4744C25.0571 85.6357 25.1977 85.7957 25.3746 85.9742C25.5528 86.154 25.7124 86.2967 25.8735 86.4044C25.9812 86.4763 26.1194 86.4828 26.2341 86.4229L26.77 86.143C27.0744 86.3189 27.4026 86.4574 27.7486 86.5523L27.9313 87.1321C27.9709 87.2578 28.0753 87.3513 28.2034 87.3772C28.3917 87.4153 28.6033 87.4281 28.8535 87.4281C29.1055 87.4281 29.3183 87.4151 29.5077 87.3763C29.6343 87.3504 29.7365 87.2564 29.7756 87.1322L29.9584 86.5523C30.3044 86.4574 30.6326 86.3189 30.9369 86.143L31.4728 86.4229C31.5889 86.4835 31.7282 86.4751 31.837 86.402C31.9968 86.2946 32.1554 86.1527 32.3323 85.9742C32.5105 85.7944 32.6519 85.6334 32.7587 85.4709C32.83 85.3623 32.8364 85.2228 32.777 85.1071L32.4997 84.5663C32.6739 84.2593 32.8112 83.9281 32.9053 83.579L33.48 83.3947C33.6045 83.3547 33.6972 83.2494 33.7229 83.1201C33.7606 82.9301 33.7733 82.7167 33.7733 82.4643C33.7733 82.21 33.7604 81.9952 33.722 81.8042ZM28.8535 85.5893C27.1429 85.5893 25.7562 84.1902 25.7562 82.4643C25.7562 80.7384 27.1429 79.3392 28.8535 79.3392C30.5641 79.3392 31.9508 80.7384 31.9508 82.4643C31.9508 84.1902 30.5641 85.5893 28.8535 85.5893Z" fill="url(#paint2_linear_3_2)"/>
<path d="M30.4866 27.6525H78.7601C80.5132 27.6525 81.9427 29.0876 81.9427 30.8673V80.9943C81.9427 82.774 80.5132 84.2091 78.7601 84.2091H30.4866C28.7336 84.209 27.305 82.7739 27.305 80.9943V30.8673C27.305 29.0877 28.7336 27.6526 30.4866 27.6525Z" fill="white" stroke="#474747"/>
<path d="M78.7604 27.1525H30.4869C28.4534 27.1525 26.805 28.8156 26.805 30.8673V35.8204C26.805 37.872 28.4534 39.5352 30.4869 39.5352H78.7604C80.7938 39.5352 82.4422 37.872 82.4422 35.8204V30.8673C82.4422 28.8156 80.7938 27.1525 78.7604 27.1525Z" fill="#1B2644"/>
<path d="M82.4422 35.8204H26.805V39.5352H82.4422V35.8204Z" fill="#1B2644"/>
<path d="M33.2853 36.1599L33.4543 35.2499C33.8747 35.2499 34.2408 35.239 34.5528 35.2174C34.8648 35.1914 35.1227 35.1545 35.3263 35.1069C35.5343 35.0549 35.6882 34.9877 35.7878 34.9054C35.8918 34.823 35.9438 34.7234 35.9438 34.6064C35.9438 34.4504 35.9178 34.264 35.8658 34.0474C35.8138 33.8264 35.7467 33.6032 35.6643 33.3779L36.5158 33.1309C36.5722 33.2782 36.6263 33.4407 36.6783 33.6184C36.7303 33.7917 36.7715 33.9672 36.8018 34.1449C36.8365 34.3182 36.8538 34.4807 36.8538 34.6324C36.8538 34.901 36.7953 35.1329 36.6783 35.3279C36.5613 35.5185 36.3663 35.6767 36.0933 35.8024C35.8247 35.9237 35.4607 36.0125 35.0013 36.0689C34.542 36.1295 33.97 36.1599 33.2853 36.1599ZM33.2788 36.1599C32.8108 36.1599 32.4143 36.123 32.0893 36.0494C31.7687 35.98 31.5065 35.8804 31.3028 35.7504C31.1035 35.616 30.9583 35.46 30.8673 35.2824C30.7763 35.1047 30.7308 34.9097 30.7308 34.6974C30.7308 34.5587 30.7417 34.42 30.7633 34.2814C30.7893 34.1384 30.8197 33.9997 30.8543 33.8654C30.8933 33.731 30.928 33.6097 30.9583 33.5014L31.7708 33.6899C31.7535 33.7679 31.734 33.8524 31.7123 33.9434C31.6907 34.0344 31.6733 34.1232 31.6603 34.2099C31.6473 34.2922 31.6408 34.368 31.6408 34.4374C31.6408 34.5977 31.6972 34.7407 31.8098 34.8664C31.9268 34.9877 32.1175 35.083 32.3818 35.1524C32.6462 35.2174 33.0015 35.2499 33.4478 35.2499L33.5778 35.9519L33.2788 36.1599ZM34.3513 33.1894C34.2257 33.1894 34.1173 33.146 34.0263 33.0594C33.9397 32.9684 33.8963 32.8622 33.8963 32.7409C33.8963 32.6152 33.9397 32.5069 34.0263 32.4159C34.1173 32.3249 34.2257 32.2794 34.3513 32.2794C34.4727 32.2794 34.5767 32.3249 34.6633 32.4159C34.75 32.5069 34.7933 32.6152 34.7933 32.7409C34.7933 32.8622 34.75 32.9684 34.6633 33.0594C34.5767 33.146 34.4727 33.1894 34.3513 33.1894ZM33.2268 33.1829C33.1012 33.1829 32.9928 33.1395 32.9018 33.0529C32.8152 32.9619 32.7718 32.8557 32.7718 32.7344C32.7718 32.6087 32.8152 32.5004 32.9018 32.4094C32.9928 32.3184 33.1012 32.2729 33.2268 32.2729C33.3482 32.2729 33.4522 32.3184 33.5388 32.4094C33.6255 32.5004 33.6688 32.6087 33.6688 32.7344C33.6688 32.8557 33.6255 32.9619 33.5388 33.0529C33.4522 33.1395 33.3482 33.1829 33.2268 33.1829ZM37.7015 36.0234L37.565 31.2654H38.475L38.6115 36.0234H37.7015ZM40.3759 35.1459C40.5709 35.1459 40.7204 35.1285 40.8244 35.0939C40.9284 35.0592 40.9999 35.0137 41.0389 34.9574C41.0779 34.901 41.0974 34.8404 41.0974 34.7754C41.0974 34.6714 41.067 34.55 41.0064 34.4114C40.95 34.2727 40.8785 34.1275 40.7919 33.9759C40.7052 33.8242 40.6142 33.679 40.5189 33.5404C40.4279 33.4017 40.3455 33.2804 40.2719 33.1764L41.0454 32.6629C41.2317 32.9142 41.392 33.1634 41.5264 33.4104C41.6607 33.653 41.769 33.8784 41.8514 34.0864C41.938 34.2944 41.9987 34.472 42.0334 34.6194C42.068 34.758 42.12 34.8664 42.1894 34.9444C42.263 35.018 42.3475 35.07 42.4429 35.1004C42.5382 35.1307 42.6335 35.1459 42.7289 35.1459C42.8935 35.1459 43.0105 35.1892 43.0799 35.2759C43.1535 35.3582 43.1904 35.4622 43.1904 35.5879C43.1904 35.7222 43.1449 35.8349 43.0539 35.9259C42.9672 36.0125 42.8372 36.0559 42.6639 36.0559C42.4732 36.0559 42.3064 36.0299 42.1634 35.9779C42.0204 35.9259 41.899 35.8435 41.7994 35.7309C41.6997 35.6182 41.6152 35.4752 41.5459 35.3019L41.9424 35.3864C41.9077 35.5077 41.8275 35.6204 41.7019 35.7244C41.5805 35.824 41.418 35.9064 41.2144 35.9714C41.015 36.032 40.7789 36.0624 40.5059 36.0624C40.3759 36.0624 40.2307 36.0515 40.0704 36.0299C39.9144 36.0082 39.7584 35.9757 39.6024 35.9324C39.4507 35.889 39.312 35.8327 39.1864 35.7634L39.5049 34.9379C39.6652 35.0072 39.819 35.0592 39.9664 35.0939C40.118 35.1285 40.2545 35.1459 40.3759 35.1459ZM42.6722 36.0559L42.7372 35.1459C42.9019 35.1459 43.0319 35.1307 43.1272 35.1004C43.2269 35.07 43.3049 35.0094 43.3612 34.9184C43.4219 34.823 43.4717 34.6844 43.5107 34.5024C43.5541 34.3204 43.5974 34.0777 43.6407 33.7744L44.4922 33.9174C44.4836 33.9824 44.4706 34.0582 44.4532 34.1449C44.4402 34.2315 44.4272 34.3204 44.4142 34.4114C44.4056 34.498 44.4012 34.5804 44.4012 34.6584C44.4012 34.7624 44.4229 34.8512 44.4662 34.9249C44.5139 34.9942 44.5962 35.0484 44.7132 35.0874C44.8346 35.1264 45.0079 35.1459 45.2332 35.1459C45.3979 35.1459 45.5149 35.1892 45.5842 35.2759C45.6536 35.3582 45.6882 35.4622 45.6882 35.5879C45.6882 35.7222 45.6427 35.8349 45.5517 35.9259C45.4651 36.0125 45.3372 36.0559 45.1682 36.0559C44.8692 36.0559 44.6266 36.0277 44.4402 35.9714C44.2539 35.915 44.1152 35.8197 44.0242 35.6854C43.9332 35.551 43.8747 35.3669 43.8487 35.1329H44.1607C44.0827 35.3409 43.9917 35.5077 43.8877 35.6334C43.7837 35.7547 43.6667 35.8457 43.5367 35.9064C43.4067 35.967 43.2681 36.006 43.1207 36.0234C42.9777 36.045 42.8282 36.0559 42.6722 36.0559ZM43.9982 33.1114C43.8639 33.1114 43.7491 33.0659 43.6537 32.9749C43.5627 32.8839 43.5172 32.7712 43.5172 32.6369C43.5172 32.5025 43.5627 32.3877 43.6537 32.2924C43.7491 32.197 43.8639 32.1494 43.9982 32.1494C44.1282 32.1494 44.2387 32.197 44.3297 32.2924C44.4251 32.3877 44.4727 32.5025 44.4727 32.6369C44.4727 32.7712 44.4251 32.8839 44.3297 32.9749C44.2387 33.0659 44.1282 33.1114 43.9982 33.1114ZM45.1669 36.0559L45.2319 35.1459C45.3879 35.1459 45.5222 35.1307 45.6349 35.1004C45.7475 35.07 45.8429 35.0094 45.9209 34.9184C45.9989 34.823 46.0639 34.6844 46.1159 34.5024C46.1722 34.3204 46.222 34.0777 46.2654 33.7744L47.1169 33.9174C47.1082 33.9824 47.0952 34.0582 47.0779 34.1449C47.0649 34.2315 47.0519 34.3204 47.0389 34.4114C47.0302 34.498 47.0259 34.5804 47.0259 34.6584C47.0259 34.7364 47.041 34.8057 47.0714 34.8664C47.1017 34.927 47.1494 34.979 47.2144 35.0224C47.2837 35.0614 47.3725 35.0917 47.4809 35.1134C47.5935 35.135 47.73 35.1459 47.8904 35.1459C48.055 35.1459 48.172 35.1892 48.2414 35.2759C48.3107 35.3582 48.3454 35.4622 48.3454 35.5879C48.3454 35.7222 48.2999 35.8349 48.2089 35.9259C48.1222 36.0125 47.9944 36.0559 47.8254 36.0559C47.6304 36.0559 47.4527 36.0407 47.2924 36.0104C47.1364 35.98 46.9999 35.9302 46.8829 35.8609C46.7702 35.7872 46.677 35.6919 46.6034 35.5749C46.534 35.4535 46.4907 35.3062 46.4734 35.1329H46.7854C46.7074 35.3409 46.6077 35.5077 46.4864 35.6334C46.3694 35.7547 46.2372 35.8457 46.0899 35.9064C45.9425 35.967 45.7887 36.006 45.6284 36.0234C45.4724 36.045 45.3185 36.0559 45.1669 36.0559ZM47.2534 33.1894C47.1277 33.1894 47.0194 33.146 46.9284 33.0594C46.8417 32.9684 46.7984 32.8622 46.7984 32.7409C46.7984 32.6152 46.8417 32.5069 46.9284 32.4159C47.0194 32.3249 47.1277 32.2794 47.2534 32.2794C47.3747 32.2794 47.4787 32.3249 47.5654 32.4159C47.652 32.5069 47.6954 32.6152 47.6954 32.7409C47.6954 32.8622 47.652 32.9684 47.5654 33.0594C47.4787 33.146 47.3747 33.1894 47.2534 33.1894ZM46.1289 33.1829C46.0032 33.1829 45.8949 33.1395 45.8039 33.0529C45.7172 32.9619 45.6739 32.8557 45.6739 32.7344C45.6739 32.6087 45.7172 32.5004 45.8039 32.4094C45.8949 32.3184 46.0032 32.2729 46.1289 32.2729C46.2502 32.2729 46.3542 32.3184 46.4409 32.4094C46.5275 32.5004 46.5709 32.6087 46.5709 32.7344C46.5709 32.8557 46.5275 32.9619 46.4409 33.0529C46.3542 33.1395 46.2502 33.1829 46.1289 33.1829ZM47.8265 36.0559L47.8915 35.1459C48.0345 35.1459 48.1515 35.135 48.2425 35.1134C48.3335 35.0874 48.4072 35.0332 48.4635 34.9509C48.5242 34.8642 48.5762 34.7364 48.6195 34.5674C48.6672 34.394 48.7192 34.16 48.7755 33.8654L49.6205 34.0214C49.6032 34.1167 49.5794 34.2359 49.549 34.3789C49.523 34.5219 49.51 34.6454 49.51 34.7494C49.51 34.8317 49.5252 34.9032 49.5555 34.9639C49.5902 35.0202 49.6465 35.0657 49.7245 35.1004C49.8069 35.1307 49.9195 35.1459 50.0625 35.1459C50.1752 35.1459 50.2705 35.135 50.3485 35.1134C50.4309 35.0874 50.5002 35.0332 50.5565 34.9509C50.6172 34.8642 50.6692 34.732 50.7125 34.5544C50.7602 34.3724 50.8057 34.1275 50.849 33.8199L51.707 33.9564C51.6897 34.056 51.6724 34.1622 51.655 34.2749C51.6377 34.3875 51.6225 34.4915 51.6095 34.5869C51.5965 34.6822 51.59 34.7602 51.59 34.8209C51.59 34.8772 51.6052 34.9314 51.6355 34.9834C51.6702 35.031 51.7309 35.07 51.8175 35.1004C51.9085 35.1307 52.0342 35.1459 52.1945 35.1459C52.3895 35.1459 52.5325 35.1047 52.6235 35.0224C52.7189 34.9357 52.7665 34.8057 52.7665 34.6324C52.7665 34.5327 52.7644 34.4265 52.76 34.3139C52.7557 34.1969 52.747 34.0669 52.734 33.9239C52.7254 33.7765 52.708 33.6097 52.682 33.4234L53.5205 33.3584C53.5509 33.731 53.5855 34.0344 53.6245 34.2684C53.6635 34.5024 53.7155 34.6844 53.7805 34.8144C53.8499 34.94 53.9409 35.0267 54.0535 35.0744C54.1705 35.122 54.3222 35.1459 54.5085 35.1459C54.6732 35.1459 54.7902 35.1892 54.8595 35.2759C54.9332 35.3582 54.97 35.4622 54.97 35.5879C54.97 35.7222 54.9245 35.8349 54.8335 35.9259C54.7469 36.0125 54.6169 36.0559 54.4435 36.0559C54.3265 36.0559 54.2052 36.045 54.0795 36.0234C53.9539 36.006 53.8325 35.9692 53.7155 35.9129C53.5985 35.8522 53.4945 35.7655 53.4035 35.6529C53.3125 35.5402 53.241 35.3907 53.189 35.2044L53.306 35.2434C53.2454 35.46 53.163 35.6269 53.059 35.7439C52.955 35.8609 52.8272 35.9432 52.6755 35.9909C52.5239 36.0342 52.3419 36.0559 52.1295 36.0559C51.9345 36.0559 51.7612 36.0299 51.6095 35.9779C51.4579 35.9259 51.3365 35.8414 51.2455 35.7244C51.1589 35.603 51.1134 35.4405 51.109 35.2369H51.33C51.2434 35.4795 51.1437 35.6594 51.031 35.7764C50.9184 35.8934 50.7819 35.9692 50.6215 36.0039C50.4612 36.0385 50.2597 36.0559 50.017 36.0559C49.8697 36.0559 49.7245 36.0407 49.5815 36.0104C49.4385 35.9757 49.3107 35.8999 49.198 35.7829C49.0854 35.6615 49.003 35.4709 48.951 35.2109L49.302 35.1979C49.211 35.4535 49.0919 35.642 48.9445 35.7634C48.8015 35.8847 48.6369 35.9649 48.4505 36.0039C48.2642 36.0385 48.0562 36.0559 47.8265 36.0559ZM54.4471 36.0559L54.5121 35.1459C54.6205 35.1459 54.7028 35.1242 54.7591 35.0809C54.8155 35.0375 54.8718 34.9617 54.9281 34.8534C54.9845 34.745 55.0625 34.5977 55.1621 34.4114C55.2705 34.2034 55.3831 34.03 55.5001 33.8914C55.6171 33.7484 55.7341 33.6357 55.8511 33.5534C55.9725 33.4667 56.0916 33.406 56.2086 33.3714C56.33 33.3324 56.4491 33.3129 56.5661 33.3129C56.7265 33.3129 56.876 33.3475 57.0146 33.4169C57.1576 33.4819 57.2941 33.5967 57.4241 33.7614C57.5541 33.9217 57.6776 34.1427 57.7946 34.4244C57.877 34.6194 57.9593 34.7689 58.0416 34.8729C58.124 34.9769 58.2085 35.0484 58.2951 35.0874C58.3861 35.1264 58.4771 35.1459 58.5681 35.1459C58.7328 35.1459 58.8498 35.1892 58.9191 35.2759C58.9885 35.3582 59.0231 35.4622 59.0231 35.5879C59.0231 35.7222 58.9776 35.8349 58.8866 35.9259C58.7956 36.0125 58.6678 36.0559 58.5031 36.0559C58.2908 36.0559 58.098 36.0212 57.9246 35.9519C57.7513 35.8825 57.6148 35.7785 57.5151 35.6399L57.7036 35.4969C57.6646 35.5879 57.6061 35.6832 57.5281 35.7829C57.4545 35.8825 57.357 35.967 57.2356 36.0364C57.1186 36.1057 56.9778 36.1404 56.8131 36.1404C56.7048 36.1404 56.577 36.1187 56.4296 36.0754C56.2866 36.0364 56.1371 35.9692 55.9811 35.8739C55.8295 35.7742 55.6886 35.6399 55.5586 35.4709C55.4763 35.6225 55.3853 35.7417 55.2856 35.8284C55.186 35.9107 55.069 35.9692 54.9346 36.0039C54.8003 36.0385 54.6378 36.0559 54.4471 36.0559ZM55.9356 34.7039C55.979 34.7689 56.031 34.8339 56.0916 34.8989C56.1523 34.9639 56.2195 35.0224 56.2931 35.0744C56.3668 35.122 56.4448 35.161 56.5271 35.1914C56.6138 35.2217 56.6983 35.2369 56.7806 35.2369C56.8673 35.2369 56.9388 35.2044 56.9951 35.1394C57.0515 35.07 57.0536 34.9682 57.0016 34.8339C56.98 34.7775 56.9496 34.7147 56.9106 34.6454C56.876 34.5717 56.8348 34.5024 56.7871 34.4374C56.7438 34.3724 56.694 34.3182 56.6376 34.2749C56.5856 34.2315 56.5315 34.2099 56.4751 34.2099C56.4188 34.2099 56.3603 34.2272 56.2996 34.2619C56.239 34.2965 56.1783 34.3507 56.1176 34.4244C56.057 34.4937 55.9963 34.5869 55.9356 34.7039ZM58.5033 36.0559L58.5683 35.1459C58.7676 35.1459 58.9106 35.1264 58.9973 35.0874C59.084 35.044 59.136 34.966 59.1533 34.8534C59.1706 34.7364 59.175 34.5674 59.1663 34.3464L59.0493 31.2654H59.9658L60.0958 34.4114C60.1045 34.6627 60.0936 34.8902 60.0633 35.0939C60.0373 35.2932 59.9701 35.4644 59.8618 35.6074C59.7578 35.7504 59.5953 35.8609 59.3743 35.9389C59.1576 36.0169 58.8673 36.0559 58.5033 36.0559ZM60.953 36.0234L60.8165 31.2654H61.7265L61.863 36.0234H60.953ZM66.4772 36.1599L66.6462 35.2499C66.9582 35.2499 67.2572 35.2347 67.5432 35.2044C67.8336 35.174 68.1087 35.1134 68.3687 35.0224C68.6331 34.9314 68.8801 34.797 69.1097 34.6194C69.3394 34.4417 69.5474 34.2034 69.7337 33.9044L70.4617 34.2359C70.4357 34.3182 70.4141 34.3984 70.3967 34.4764C70.3794 34.55 70.3707 34.6107 70.3707 34.6584C70.3707 34.758 70.3946 34.8447 70.4422 34.9184C70.4942 34.992 70.5809 35.0484 70.7022 35.0874C70.8236 35.1264 70.9904 35.1459 71.2027 35.1459C71.3674 35.1459 71.4844 35.1892 71.5537 35.2759C71.6231 35.3582 71.6577 35.4622 71.6577 35.5879C71.6577 35.7222 71.6122 35.8349 71.5212 35.9259C71.4346 36.0125 71.3067 36.0559 71.1377 36.0559C70.8387 36.0559 70.5787 36.0147 70.3577 35.9324C70.1411 35.85 69.9699 35.7352 69.8442 35.5879C69.7229 35.4362 69.6514 35.2629 69.6297 35.0679L69.8897 35.0939C69.7337 35.2802 69.5387 35.4405 69.3047 35.5749C69.0751 35.7092 68.8129 35.8197 68.5182 35.9064C68.2279 35.993 67.9094 36.0559 67.5627 36.0949C67.2204 36.1382 66.8586 36.1599 66.4772 36.1599ZM66.4707 36.1599C66.0027 36.1599 65.6062 36.123 65.2812 36.0494C64.9606 35.98 64.6984 35.8804 64.4947 35.7504C64.2954 35.616 64.1502 35.46 64.0592 35.2824C63.9682 35.1047 63.9227 34.9097 63.9227 34.6974C63.9227 34.5587 63.9336 34.42 63.9552 34.2814C63.9812 34.1384 64.0116 33.9997 64.0462 33.8654C64.0852 33.731 64.1199 33.6097 64.1502 33.5014L64.9627 33.6899C64.9454 33.7679 64.9259 33.8524 64.9042 33.9434C64.8826 34.0344 64.8652 34.1232 64.8522 34.2099C64.8392 34.2922 64.8327 34.368 64.8327 34.4374C64.8327 34.5977 64.8891 34.7407 65.0017 34.8664C65.1187 34.9877 65.3094 35.083 65.5737 35.1524C65.8381 35.2174 66.1934 35.2499 66.6397 35.2499L66.7697 35.9519L66.4707 36.1599ZM66.9387 37.6809C66.8131 37.6809 66.7047 37.6375 66.6137 37.5509C66.5271 37.4642 66.4837 37.358 66.4837 37.2324C66.4837 37.1067 66.5271 36.9962 66.6137 36.9009C66.7047 36.8099 66.8131 36.7644 66.9387 36.7644C67.0644 36.7644 67.1706 36.8099 67.2572 36.9009C67.3482 36.9962 67.3937 37.1067 67.3937 37.2324C67.3937 37.358 67.3482 37.4642 67.2572 37.5509C67.1706 37.6375 67.0644 37.6809 66.9387 37.6809ZM71.1351 36.0559L71.2001 35.1459C71.4601 35.1459 71.6595 35.1329 71.7981 35.1069C71.9368 35.0809 72.0321 35.0332 72.0841 34.9639C72.1405 34.8902 72.1686 34.7862 72.1686 34.6519C72.1686 34.5305 72.1513 34.3854 72.1166 34.2164C72.0863 34.0474 72.0451 33.8719 71.9931 33.6899C71.9455 33.5079 71.8935 33.341 71.8371 33.1894L72.7341 32.9424C72.7905 33.0897 72.8446 33.2609 72.8966 33.4559C72.9486 33.6509 72.992 33.8524 73.0266 34.0604C73.0613 34.264 73.0786 34.4612 73.0786 34.6519C73.0786 34.9465 73.031 35.187 72.9356 35.3734C72.8403 35.5554 72.706 35.6962 72.5326 35.7959C72.3636 35.8955 72.16 35.9649 71.9216 36.0039C71.6833 36.0385 71.4211 36.0559 71.1351 36.0559ZM72.8966 32.4159C72.771 32.4159 72.6626 32.3725 72.5716 32.2859C72.485 32.1949 72.4416 32.0887 72.4416 31.9674C72.4416 31.8417 72.485 31.7334 72.5716 31.6424C72.6626 31.5514 72.771 31.5059 72.8966 31.5059C73.018 31.5059 73.122 31.5514 73.2086 31.6424C73.2953 31.7334 73.3386 31.8417 73.3386 31.9674C73.3386 32.0887 73.2953 32.1949 73.2086 32.2859C73.122 32.3725 73.018 32.4159 72.8966 32.4159ZM71.7721 32.4094C71.6465 32.4094 71.5381 32.366 71.4471 32.2794C71.3605 32.1884 71.3171 32.0822 71.3171 31.9609C71.3171 31.8352 71.3605 31.7269 71.4471 31.6359C71.5381 31.5449 71.6465 31.4994 71.7721 31.4994C71.8935 31.4994 71.9975 31.5449 72.0841 31.6359C72.1708 31.7269 72.2141 31.8352 72.2141 31.9609C72.2141 32.0822 72.1708 32.1884 72.0841 32.2794C71.9975 32.366 71.8935 32.4094 71.7721 32.4094ZM75.5316 36.0559C75.1286 36.0559 74.8166 36.0147 74.5956 35.9324C74.3789 35.85 74.2272 35.7222 74.1406 35.5489C74.0539 35.3712 74.0041 35.148 73.9911 34.8794L73.8546 31.2654H74.7646L74.9011 34.4439C74.9097 34.6432 74.9314 34.7927 74.9661 34.8924C75.0007 34.992 75.0657 35.0592 75.1611 35.0939C75.2607 35.1285 75.4059 35.1459 75.5966 35.1459C75.7612 35.1459 75.8782 35.1892 75.9476 35.2759C76.0212 35.3582 76.0581 35.4622 76.0581 35.5879C76.0581 35.7222 76.0126 35.8349 75.9216 35.9259C75.8306 36.0125 75.7006 36.0559 75.5316 36.0559ZM75.5404 36.0559L75.6054 35.1459H76.5349C76.6259 35.1459 76.7061 35.1415 76.7754 35.1329C76.8447 35.1199 76.9011 35.1004 76.9444 35.0744C76.9921 35.0484 77.0267 35.0159 77.0484 34.9769C77.0701 34.9379 77.0809 34.8924 77.0809 34.8404C77.0809 34.7884 77.0527 34.706 76.9964 34.5934C76.9444 34.4764 76.8296 34.3355 76.6519 34.1709C76.5566 34.0842 76.4526 33.9932 76.3399 33.8979C76.2316 33.7982 76.1276 33.705 76.0279 33.6184C75.9282 33.5274 75.8459 33.4472 75.7809 33.3779C75.7159 33.3085 75.6834 33.2587 75.6834 33.2284C75.6834 33.1634 75.6877 33.0919 75.6964 33.0139C75.7051 32.9359 75.7181 32.8644 75.7354 32.7994C75.7571 32.7344 75.7852 32.6867 75.8199 32.6564C75.8936 32.587 76.0019 32.5069 76.1449 32.4159C76.2922 32.3205 76.4677 32.2187 76.6714 32.1104C76.8751 31.9977 77.1026 31.8807 77.3539 31.7594C77.6096 31.6337 77.8826 31.508 78.1729 31.3824L78.5434 32.1754C78.3051 32.2794 78.0797 32.3812 77.8674 32.4809C77.6551 32.5762 77.4557 32.6715 77.2694 32.7669C77.0874 32.8579 76.9184 32.9489 76.7624 33.0399C76.6107 33.1265 76.4764 33.2132 76.3594 33.2999L76.4439 32.8189C76.8122 33.1005 77.1047 33.354 77.3214 33.5794C77.5424 33.8047 77.7071 34.0062 77.8154 34.1839C77.9237 34.3572 77.9952 34.5132 78.0299 34.6519C78.0646 34.7862 78.0819 34.9054 78.0819 35.0094C78.0819 35.1134 78.0559 35.226 78.0039 35.3474C77.9562 35.4644 77.8674 35.577 77.7374 35.6854C77.6117 35.7937 77.4341 35.8825 77.2044 35.9519C76.9747 36.0212 76.6801 36.0559 76.3204 36.0559H75.5404Z" fill="#00FF88"/>
<path d="M76.7149 43.4564H32.5323C32.1934 43.4564 31.9187 43.7336 31.9187 44.0755V44.2819C31.9187 44.6238 32.1934 44.901 32.5323 44.901H76.7149C77.0538 44.901 77.3285 44.6238 77.3285 44.2819V44.0755C77.3285 43.7336 77.0538 43.4564 76.7149 43.4564Z" fill="#76777A"/>
<path d="M76.7149 47.1712H32.5323C32.1934 47.1712 31.9187 47.4484 31.9187 47.7903V47.9967C31.9187 48.3386 32.1934 48.6158 32.5323 48.6158H76.7149C77.0538 48.6158 77.3285 48.3386 77.3285 47.9967V47.7903C77.3285 47.4484 77.0538 47.1712 76.7149 47.1712Z" fill="#76777A"/>
<path d="M68.1238 50.886H32.5323C32.1934 50.886 31.9187 51.1632 31.9187 51.5051V51.7115C31.9187 52.0534 32.1934 52.3306 32.5323 52.3306H68.1238C68.4627 52.3306 68.7375 52.0534 68.7375 51.7115V51.5051C68.7375 51.1632 68.4627 50.886 68.1238 50.886Z" fill="#76777A"/>
<path d="M76.7149 56.4582H32.5323C32.1934 56.4582 31.9187 56.7354 31.9187 57.0773V57.2837C31.9187 57.6257 32.1934 57.9028 32.5323 57.9028H76.7149C77.0538 57.9028 77.3285 57.6257 77.3285 57.2837V57.0773C77.3285 56.7354 77.0538 56.4582 76.7149 56.4582Z" fill="#76777A"/>
<path d="M76.7149 60.173H32.5323C32.1934 60.173 31.9187 60.4502 31.9187 60.7921V60.9985C31.9187 61.3405 32.1934 61.6177 32.5323 61.6177H76.7149C77.0538 61.6177 77.3285 61.3405 77.3285 60.9985V60.7921C77.3285 60.4502 77.0538 60.173 76.7149 60.173Z" fill="#76777A"/>
<path d="M76.7149 63.8878H32.5323C32.1934 63.8878 31.9187 64.165 31.9187 64.507V64.7133C31.9187 65.0553 32.1934 65.3325 32.5323 65.3325H76.7149C77.0538 65.3325 77.3285 65.0553 77.3285 64.7133V64.507C77.3285 64.165 77.0538 63.8878 76.7149 63.8878Z" fill="#76777A"/>
<path d="M64.0328 67.6026H32.5323C32.1934 67.6026 31.9187 67.8798 31.9187 68.2218V68.4281C31.9187 68.7701 32.1934 69.0473 32.5323 69.0473H64.0328C64.3717 69.0473 64.6465 68.7701 64.6465 68.4281V68.2218C64.6465 67.8798 64.3717 67.6026 64.0328 67.6026Z" fill="#76777A"/>
<path d="M76.7149 73.1749H32.5323C32.1934 73.1749 31.9187 73.452 31.9187 73.794V74.0004C31.9187 74.3423 32.1934 74.6195 32.5323 74.6195H76.7149C77.0538 74.6195 77.3285 74.3423 77.3285 74.0004V73.794C77.3285 73.452 77.0538 73.1749 76.7149 73.1749Z" fill="#76777A"/>
<path d="M70.1693 76.8897H32.5323C32.1934 76.8897 31.9187 77.1669 31.9187 77.5088V77.7152C31.9187 78.0571 32.1934 78.3343 32.5323 78.3343H70.1693C70.5082 78.3343 70.7829 78.0571 70.7829 77.7152V77.5088C70.7829 77.1669 70.5082 76.8897 70.1693 76.8897Z" fill="#76777A"/>
<g filter="url(#filter0_d_3_2)">
<path d="M73.6906 87.5156C79.3391 87.5156 83.9181 82.8957 83.9181 77.1967C83.9181 71.4977 79.3391 66.8778 73.6906 66.8778C68.0422 66.8778 63.4632 71.4977 63.4632 77.1967C63.4632 82.8957 68.0422 87.5156 73.6906 87.5156Z" fill="url(#paint3_linear_3_2)"/>
<path d="M73.6907 67.3778C79.0588 67.3778 83.4183 71.7701 83.4183 77.1971C83.4181 82.6239 79.0587 87.0154 73.6907 87.0155C68.3227 87.0155 63.9634 82.624 63.9632 77.1971C63.9632 71.7701 68.3226 67.3778 73.6907 67.3778Z" stroke="black"/>
</g>
<g opacity="0.4" filter="url(#filter1_d_3_2)">
<path d="M73.6907 85.4518C78.2094 85.4518 81.8726 81.7559 81.8726 77.1967C81.8726 72.6375 78.2094 68.9416 73.6907 68.9416C69.1719 68.9416 65.5087 72.6375 65.5087 77.1967C65.5087 81.7559 69.1719 85.4518 73.6907 85.4518Z" stroke="#92400E" stroke-width="2.89606" shape-rendering="crispEdges"/>
</g>
<path opacity="0.3" d="M73.6907 83.8008C77.3057 83.8008 80.2363 80.844 80.2363 77.1967C80.2363 73.5494 77.3057 70.5926 73.6907 70.5926C70.0757 70.5926 67.1451 73.5494 67.1451 77.1967C67.1451 80.844 70.0757 83.8008 73.6907 83.8008Z" stroke="#92400E" stroke-width="1.44803"/>
<path d="M70.0088 77.1967L72.4634 79.6732L78.1907 74.3074" stroke="#0D3D28" stroke-linecap="round" stroke-linejoin="round"/>
<defs>
<filter id="filter0_d_3_2" x="59.4632" y="66.8778" width="28.4549" height="28.6378" filterUnits="userSpaceOnUse" color-interpolation-filters="sRGB">
<feFlood flood-opacity="0" result="BackgroundImageFix"/>
<feColorMatrix in="SourceAlpha" type="matrix" values="0 0 0 0 0 0 0 0 0 0 0 0 0 0 0 0 0 0 127 0" result="hardAlpha"/>
<feOffset dy="4"/>
<feGaussianBlur stdDeviation="2"/>
<feComposite in2="hardAlpha" operator="out"/>
<feColorMatrix type="matrix" values="0 0 0 0 0 0 0 0 0 0 0 0 0 0 0 0 0 0 0.25 0"/>
<feBlend mode="normal" in2="BackgroundImageFix" result="effect1_dropShadow_3_2"/>
<feBlend mode="normal" in="SourceGraphic" in2="effect1_dropShadow_3_2" result="shape"/>
</filter>
<filter id="filter1_d_3_2" x="60.0607" y="67.4935" width="27.2599" height="27.4063" filterUnits="userSpaceOnUse" color-interpolation-filters="sRGB">
<feFlood flood-opacity="0" result="BackgroundImageFix"/>
<feColorMatrix in="SourceAlpha" type="matrix" values="0 0 0 0 0 0 0 0 0 0 0 0 0 0 0 0 0 0 127 0" result="hardAlpha"/>
<feOffset dy="4"/>
<feGaussianBlur stdDeviation="2"/>
<feComposite in2="hardAlpha" operator="out"/>
<feColorMatrix type="matrix" values="0 0 0 0 0 0 0 0 0 0 0 0 0 0 0 0 0 0 0.25 0"/>
<feBlend mode="normal" in2="BackgroundImageFix" result="effect1_dropShadow_3_2"/>
<feBlend mode="normal" in="SourceGraphic" in2="effect1_dropShadow_3_2" result="shape"/>
</filter>
<linearGradient id="paint0_linear_3_2" x1="21.0938" y1="21.5156" x2="1825.03" y2="21.5156" gradientUnits="userSpaceOnUse">
<stop stop-color="#FCD34D"/>
<stop offset="0.5" stop-color="#FBBF24"/>
<stop offset="1" stop-color="#F59E0B"/>
</linearGradient>
<linearGradient id="paint1_linear_3_2" x1="73.9742" y1="42.551" x2="1385.93" y2="42.551" gradientUnits="userSpaceOnUse">
<stop stop-color="#FCD34D"/>
<stop offset="0.5" stop-color="#FBBF24"/>
<stop offset="1" stop-color="#F59E0B"/>
</linearGradient>
<linearGradient id="paint2_linear_3_2" x1="23.9337" y1="77.5004" x2="1007.9" y2="77.5004" gradientUnits="userSpaceOnUse">
<stop stop-color="#FCD34D"/>
<stop offset="0.5" stop-color="#FBBF24"/>
<stop offset="1" stop-color="#F59E0B"/>
</linearGradient>
<linearGradient id="paint3_linear_3_2" x1="63.4632" y1="66.8778" x2="2108.95" y2="66.8778" gradientUnits="userSpaceOnUse">
<stop stop-color="#FCD34D"/>
<stop offset="0.5" stop-color="#FBBF24"/>
<stop offset="1" stop-color="#F59E0B"/>
</linearGradient>
</defs>
</svg>
